<?xml version="1.0" encoding="UTF-8"?>
<svg xmlns="http://www.w3.org/2000/svg" xmlns:xlink="http://www.w3.org/1999/xlink" viewBox="0 0 128 128" width="128px" height="128px">
<g id="surface19459198">
<path style=" stroke:none;fill-rule:nonzero;fill:rgb(36.078432%,0%,0%);fill-opacity:1;" d="M 99.324219 122.164062 C 99.21875 122.164062 99.109375 122.15625 98.996094 122.136719 L 95.050781 121.484375 C 93.960938 121.304688 93.222656 120.273438 93.40625 119.183594 C 93.585938 118.097656 94.613281 117.347656 95.703125 117.539062 L 99.648438 118.191406 C 100.738281 118.371094 101.476562 119.402344 101.296875 120.492188 C 101.132812 121.46875 100.289062 122.164062 99.324219 122.164062 Z M 99.324219 122.164062 "/>
<path style=" stroke:none;fill-rule:nonzero;fill:rgb(36.078432%,0%,0%);fill-opacity:1;" d="M 101.019531 111.964844 C 100.910156 111.964844 100.800781 111.957031 100.691406 111.9375 L 96.742188 111.28125 C 95.652344 111.101562 94.914062 110.070312 95.097656 108.980469 C 95.277344 107.894531 96.304688 107.148438 97.394531 107.335938 L 101.34375 107.988281 C 102.433594 108.171875 103.171875 109.199219 102.988281 110.289062 C 102.824219 111.269531 101.976562 111.964844 101.019531 111.964844 Z M 101.019531 111.964844 "/>
<path style=" stroke:none;fill-rule:nonzero;fill:rgb(36.078432%,0%,0%);fill-opacity:1;" d="M 102.707031 101.761719 C 102.601562 101.761719 102.488281 101.753906 102.378906 101.734375 L 98.433594 101.078125 C 97.34375 100.898438 96.605469 99.871094 96.789062 98.78125 C 96.96875 97.691406 97.976562 96.953125 99.089844 97.132812 L 103.035156 97.789062 C 104.121094 97.96875 104.859375 98.996094 104.679688 100.089844 C 104.515625 101.066406 103.667969 101.761719 102.707031 101.761719 Z M 102.707031 101.761719 "/>
<path style=" stroke:none;fill-rule:nonzero;fill:rgb(36.078432%,0%,0%);fill-opacity:1;" d="M 104.394531 91.558594 C 104.289062 91.558594 104.179688 91.550781 104.066406 91.53125 L 100.121094 90.878906 C 99.03125 90.699219 98.292969 89.667969 98.476562 88.578125 C 98.65625 87.488281 99.683594 86.742188 100.773438 86.933594 L 104.71875 87.585938 C 105.808594 87.765625 106.546875 88.796875 106.367188 89.886719 C 106.207031 90.867188 105.359375 91.558594 104.394531 91.558594 Z M 104.394531 91.558594 "/>
<path style=" stroke:none;fill-rule:nonzero;fill:rgb(36.078432%,0%,0%);fill-opacity:1;" d="M 106.089844 81.359375 C 105.980469 81.359375 105.871094 81.351562 105.761719 81.328125 L 101.8125 80.675781 C 100.722656 80.496094 99.984375 79.464844 100.164062 78.375 C 100.347656 77.289062 101.375 76.546875 102.464844 76.730469 L 106.410156 77.382812 C 107.503906 77.5625 108.238281 78.59375 108.058594 79.683594 C 107.894531 80.664062 107.046875 81.359375 106.089844 81.359375 Z M 106.089844 81.359375 "/>
<path style=" stroke:none;fill-rule:nonzero;fill:rgb(100%,65.490198%,0%);fill-opacity:1;" d="M 82 124 C 81 124 80.148438 123.257812 80.019531 122.261719 L 74.476562 79.929688 C 74.359375 79.042969 74.847656 78.1875 75.664062 77.832031 C 75.921875 77.722656 76.191406 77.667969 76.457031 77.667969 C 76.710938 77.667969 76.960938 77.714844 77.195312 77.808594 L 74.476562 56.546875 C 74.367188 55.699219 74.808594 54.875 75.578125 54.5 C 75.859375 54.363281 76.160156 54.292969 76.457031 54.292969 C 76.976562 54.292969 77.488281 54.496094 77.875 54.878906 L 79.300781 56.304688 L 77.960938 36.496094 C 77.515625 36.460938 77.0625 36.421875 76.605469 36.375 C 75.46875 36.265625 74.292969 36.152344 73.027344 36.152344 C 70.753906 36.152344 66.566406 36.535156 64.238281 37.347656 L 64.007812 73.679688 L 65.902344 79.367188 C 66.105469 79.976562 66.003906 80.644531 65.625 81.167969 C 65.246094 81.691406 64.640625 82 64 82 L 48 82 C 47.359375 82 46.753906 81.691406 46.378906 81.167969 C 46.003906 80.644531 45.898438 79.976562 46.101562 79.367188 L 48 73.675781 L 48 47.339844 C 47.953125 47.367188 47.902344 47.394531 47.855469 47.421875 C 44.671875 49.183594 41.136719 51.132812 38 51.78125 L 38 67.675781 L 39.898438 73.367188 C 40.101562 73.976562 39.996094 74.648438 39.621094 75.171875 C 39.246094 75.691406 38.640625 76 38 76 L 22 76 C 21.359375 76 20.753906 75.691406 20.378906 75.167969 C 20.003906 74.644531 19.898438 73.976562 20.101562 73.367188 L 22 67.675781 L 22 51.675781 C 18.398438 50.933594 16.71875 49.839844 14.808594 48.597656 L 13.949219 48.039062 C 12.824219 47.332031 9.417969 45.175781 8.394531 39.742188 C 8.371094 39.621094 8.359375 39.496094 8.359375 39.375 L 8.359375 39.113281 C 8.359375 38.273438 8.886719 37.523438 9.679688 37.234375 C 10.457031 36.953125 11.167969 36.667969 11.847656 36.398438 C 13.636719 35.683594 15.335938 35.011719 17.523438 34.613281 C 17.640625 34.59375 17.761719 34.582031 17.878906 34.582031 C 18.34375 34.582031 18.800781 34.742188 19.160156 35.046875 C 19.578125 35.394531 19.835938 35.898438 19.875 36.4375 C 20.019531 37.367188 19.714844 38.167969 18.964844 38.839844 C 18.550781 39.210938 17.984375 39.667969 17.394531 40.144531 C 17.039062 40.433594 16.671875 40.726562 16.324219 41.019531 C 17.207031 41.460938 19.617188 41.792969 22 41.929688 L 22 14.324219 L 20.101562 8.632812 C 19.898438 8.023438 20.003906 7.351562 20.378906 6.828125 C 20.753906 6.308594 21.359375 6 22 6 L 38 6 C 38.640625 6 39.246094 6.308594 39.621094 6.832031 C 39.996094 7.355469 40.101562 8.023438 39.898438 8.632812 L 38 14.324219 L 38 41.832031 C 40.097656 41.4375 42.230469 40.234375 47.457031 37.207031 L 48 36.894531 L 48 12.324219 L 46.101562 6.632812 C 45.898438 6.023438 46.003906 5.351562 46.378906 4.828125 C 46.753906 4.308594 47.359375 4 48 4 L 64 4 C 64.640625 4 65.246094 4.308594 65.621094 4.832031 C 65.996094 5.355469 66.101562 6.023438 65.898438 6.632812 L 64 12.324219 L 64 27.308594 C 66.054688 26.867188 71.203125 26.382812 75.089844 26.382812 C 75.824219 26.382812 76.5625 26.398438 77.304688 26.433594 L 77.023438 22.128906 C 76.988281 21.574219 77.183594 21.035156 77.5625 20.628906 C 77.941406 20.226562 78.46875 20 79.019531 20 L 92 20 C 93.105469 20 94 20.894531 94 22 L 94 25.152344 C 94.265625 25.050781 94.539062 24.945312 94.8125 24.839844 C 96.21875 24.289062 97.671875 23.71875 98.9375 23.34375 C 99.378906 23.210938 99.839844 23.140625 100.300781 23.140625 C 101.886719 23.140625 103.359375 23.941406 104.234375 25.28125 L 104.34375 25.449219 C 105.980469 27.9375 110.964844 35.515625 113.554688 38.710938 C 113.859375 39.089844 114.019531 39.566406 113.996094 40.054688 C 113.941406 41.410156 113.890625 43.007812 113.832031 44.710938 C 113.640625 50.488281 113.402344 57.679688 112.832031 61.316406 C 112.789062 61.582031 112.296875 63.738281 112.296875 63.738281 C 112.214844 64.109375 112.03125 64.441406 111.761719 64.707031 C 109.597656 66.871094 107.890625 67.492188 105.339844 68.257812 C 103.660156 68.816406 99.664062 69.613281 98.105469 69.882812 C 97.917969 69.917969 97.71875 69.933594 97.523438 69.933594 C 96.589844 69.933594 95.664062 69.546875 95.050781 68.902344 C 94.546875 68.3125 94.0625 67.804688 93.574219 67.3125 L 94.035156 80.898438 C 94.0625 81.730469 93.570312 82.492188 92.800781 82.8125 C 92.550781 82.914062 92.292969 82.964844 92.035156 82.964844 C 91.492188 82.964844 90.960938 82.742188 90.574219 82.332031 L 89.566406 81.253906 L 90.140625 99.082031 C 90.167969 99.902344 89.6875 100.65625 88.9375 100.984375 C 88.679688 101.097656 88.410156 101.148438 88.140625 101.148438 C 87.621094 101.148438 87.109375 100.945312 86.726562 100.5625 L 85.878906 99.714844 L 83.992188 122.171875 C 83.90625 123.1875 83.066406 123.976562 82.042969 124.003906 C 82.03125 124 82.015625 124 82 124 Z M 98.992188 32.460938 C 98.847656 32.460938 98.703125 32.476562 98.554688 32.511719 C 97.570312 32.730469 96.507812 32.980469 95.53125 33.214844 C 94.628906 33.433594 94 34.234375 94 35.160156 L 94 55.878906 C 94 56.636719 94.40625 57.316406 95.0625 57.648438 C 95.90625 58.070312 97.609375 58.546875 99.109375 58.960938 L 99.414062 59.046875 C 99.589844 59.09375 99.773438 59.121094 99.953125 59.121094 C 100.835938 59.121094 101.605469 58.542969 101.871094 57.6875 C 102.84375 54.523438 103.464844 50.316406 103.464844 48.8125 C 103.464844 43.679688 102.210938 38.917969 101.105469 34.71875 L 100.898438 33.9375 C 100.671875 33.066406 99.890625 32.460938 98.992188 32.460938 Z M 98.992188 32.460938 "/>
<path style=" stroke:none;fill-rule:nonzero;fill:rgb(98.431373%,49.411765%,0%);fill-opacity:1;" d="M 30 16 L 30 76 L 20 76 L 22 68 L 24 50 L 24 17.71875 L 20 6 L 30 6 Z M 30 16 "/>
<path style=" stroke:none;fill-rule:nonzero;fill:rgb(100%,65.490198%,0%);fill-opacity:1;" d="M 21 7 L 30 15 L 39 7 Z M 21 7 "/>
<path style=" stroke:none;fill-rule:nonzero;fill:rgb(100%,65.490198%,0%);fill-opacity:1;" d="M 21 75 L 30 67 L 39 75 Z M 21 75 "/>
<path style=" stroke:none;fill-rule:nonzero;fill:rgb(98.431373%,49.411765%,0%);fill-opacity:1;" d="M 56 12 L 56 74 L 46 82 L 48 66 L 50 48 L 50 15.71875 L 46 4 L 56 4 Z M 56 12 "/>
<path style=" stroke:none;fill-rule:nonzero;fill:rgb(100%,65.490198%,0%);fill-opacity:1;" d="M 47 5 L 56 13 L 65 5 Z M 47 5 "/>
<path style=" stroke:none;fill-rule:nonzero;fill:rgb(100%,65.490198%,0%);fill-opacity:1;" d="M 47 81 L 56 73 L 65 81 Z M 47 81 "/>
<path style=" stroke:none;fill-rule:nonzero;fill:rgb(98.431373%,49.411765%,0%);fill-opacity:1;" d="M 86.957031 71.652344 L 82.261719 67 L 83.824219 90.824219 L 80.695312 87.175781 L 82.046875 124 L 79.261719 116.523438 L 74.433594 78.5 L 76.652344 76.28125 L 74.695312 55.152344 L 78.933594 53.324219 L 79.835938 34.582031 L 79.449219 28.59375 L 77.5 21.042969 L 86 20 Z M 86.957031 71.652344 "/>
<path style=" stroke:none;fill-rule:nonzero;fill:rgb(100%,65.490198%,0%);fill-opacity:1;" d="M 77 21 L 86 29 L 95 21 Z M 77 21 "/>
<path style=" stroke:none;fill-rule:nonzero;fill:rgb(36.078432%,0%,0%);fill-opacity:1;" d="M 64 6 L 62 12 L 62 29.894531 C 62 29.894531 65.375 27.703125 71.894531 27.703125 C 74.066406 27.703125 76.589844 27.949219 79.449219 28.597656 L 79.019531 22 L 92 22 L 92 28 C 94.183594 27.324219 97.234375 25.933594 99.507812 25.257812 C 99.773438 25.179688 100.039062 25.140625 100.300781 25.140625 C 101.199219 25.140625 102.046875 25.589844 102.558594 26.375 C 104.132812 28.765625 109.285156 36.621094 112 39.96875 C 111.753906 45.945312 111.570312 56.449219 110.859375 61.007812 C 110.820312 61.253906 110.351562 63.292969 110.351562 63.292969 C 108.570312 65.074219 107.3125 65.578125 104.769531 66.347656 C 103.246094 66.851562 99.546875 67.605469 97.765625 67.917969 C 97.6875 67.933594 97.609375 67.9375 97.53125 67.9375 C 97.109375 67.9375 96.714844 67.746094 96.507812 67.527344 C 94.949219 65.695312 93.179688 64.285156 91.398438 62 L 92.039062 80.964844 L 87.398438 76 L 88.140625 99.148438 L 84.246094 95.253906 L 82 122 L 76.457031 79.667969 L 80 84 L 76.457031 56.292969 L 81.652344 61.488281 L 79.835938 34.582031 C 76.335938 33.429688 73.601562 32.789062 71.132812 32.789062 C 68.074219 32.789062 65.429688 33.769531 62.242188 35.960938 L 62 74 L 64 80 L 48 80 L 50 74 L 50 44 C 46 46 40 50 36 50 L 36 68 L 38 74 L 22 74 L 24 68 L 24 50 C 19.003906 49.242188 17.550781 47.953125 15.019531 46.351562 C 13.585938 45.445312 11.160156 43.632812 10.359375 39.375 L 10.359375 39.113281 C 13.152344 38.101562 15.089844 37.089844 17.878906 36.582031 C 17.878906 36.828125 18.050781 36.972656 17.632812 37.347656 C 16.898438 38.007812 15.679688 38.9375 14.710938 39.769531 C 13.863281 40.496094 13.929688 41.824219 14.851562 42.453125 C 14.960938 42.527344 15.070312 42.601562 15.179688 42.671875 C 17.214844 43.945312 24 44 24 44 L 24 14 L 22 8 L 38 8 L 36 14 L 36 44 C 40 44 42 42.675781 50 38.046875 L 50 12 L 48 6 L 64 6 M 99.953125 61.121094 C 101.671875 61.121094 103.25 60 103.78125 58.277344 C 104.808594 54.929688 105.464844 50.507812 105.464844 48.8125 C 105.464844 43.085938 103.972656 37.777344 102.835938 33.429688 C 102.367188 31.648438 100.765625 30.460938 98.992188 30.460938 C 98.707031 30.460938 98.410156 30.492188 98.121094 30.558594 C 97.121094 30.78125 96.050781 31.035156 95.0625 31.273438 C 93.265625 31.703125 92 33.3125 92 35.160156 L 92 55.878906 C 92 57.378906 92.824219 58.761719 94.160156 59.433594 C 95.242188 59.980469 97.164062 60.496094 98.878906 60.972656 C 99.238281 61.074219 99.597656 61.121094 99.953125 61.121094 M 64 2 L 48 2 C 46.714844 2 45.507812 2.617188 44.757812 3.660156 C 44.007812 4.707031 43.800781 6.046875 44.207031 7.265625 L 46 12.648438 L 46 35.742188 C 43.179688 37.378906 41.371094 38.40625 40 39.042969 L 40 14.648438 L 41.792969 9.265625 C 42.199219 8.046875 41.996094 6.707031 41.242188 5.660156 C 40.492188 4.617188 39.285156 4 38 4 L 22 4 C 20.714844 4 19.507812 4.617188 18.757812 5.660156 C 18.007812 6.707031 17.796875 8.046875 18.207031 9.265625 L 20 14.648438 L 20 33.191406 C 19.363281 32.792969 18.628906 32.582031 17.878906 32.582031 C 17.640625 32.582031 17.402344 32.605469 17.167969 32.644531 C 14.78125 33.078125 12.917969 33.820312 11.113281 34.539062 C 10.449219 34.800781 9.757812 35.078125 8.996094 35.355469 C 7.414062 35.929688 6.359375 37.433594 6.359375 39.113281 L 6.359375 39.375 C 6.359375 39.621094 6.382812 39.871094 6.429688 40.113281 C 7.609375 46.398438 11.574219 48.90625 12.878906 49.730469 C 13.171875 49.914062 13.445312 50.097656 13.714844 50.273438 C 15.355469 51.339844 17.035156 52.433594 19.996094 53.25 L 19.996094 67.351562 L 18.203125 72.734375 C 17.796875 73.957031 18.003906 75.296875 18.753906 76.339844 C 19.507812 77.382812 20.714844 78 22 78 L 38 78 C 39.285156 78 40.492188 77.382812 41.242188 76.339844 C 41.992188 75.292969 42.199219 73.953125 41.792969 72.734375 L 40 67.351562 L 40 53.324219 C 41.992188 52.710938 44.027344 51.742188 46 50.707031 L 46 73.351562 L 44.207031 78.734375 C 43.800781 79.953125 44.003906 81.292969 44.757812 82.339844 C 45.507812 83.382812 46.714844 84 48 84 L 64 84 C 65.285156 84 66.492188 83.382812 67.242188 82.339844 C 67.992188 81.292969 68.199219 79.953125 67.792969 78.734375 L 66.003906 73.363281 L 66.226562 38.179688 C 67.980469 37.203125 69.484375 36.789062 71.132812 36.789062 C 72.464844 36.789062 73.996094 37.039062 76.027344 37.597656 L 77.023438 52.332031 C 76.835938 52.304688 76.644531 52.292969 76.457031 52.292969 C 75.859375 52.292969 75.257812 52.425781 74.695312 52.703125 C 73.15625 53.457031 72.273438 55.101562 72.488281 56.800781 L 74.9375 75.964844 C 74.914062 75.976562 74.890625 75.984375 74.871094 75.992188 C 73.230469 76.703125 72.257812 78.414062 72.488281 80.1875 L 78.03125 122.519531 C 78.292969 124.515625 79.992188 125.996094 81.996094 125.996094 C 82.027344 125.996094 82.058594 125.996094 82.089844 125.996094 C 84.132812 125.949219 85.8125 124.367188 85.984375 122.332031 L 87.597656 103.109375 C 87.777344 103.132812 87.957031 103.144531 88.140625 103.144531 C 88.675781 103.144531 89.214844 103.035156 89.726562 102.8125 C 91.234375 102.160156 92.1875 100.65625 92.136719 99.015625 L 91.683594 84.949219 C 91.800781 84.957031 91.914062 84.964844 92.035156 84.964844 C 92.546875 84.964844 93.066406 84.863281 93.5625 84.660156 C 95.101562 84.023438 96.085938 82.496094 96.03125 80.828125 L 95.71875 71.628906 C 96.296875 71.828125 96.90625 71.9375 97.523438 71.9375 C 97.839844 71.9375 98.15625 71.90625 98.464844 71.851562 C 100.101562 71.566406 104.078125 70.777344 105.964844 70.15625 C 108.707031 69.328125 110.703125 68.59375 113.171875 66.121094 C 113.703125 65.589844 114.074219 64.917969 114.242188 64.1875 C 114.738281 62.011719 114.78125 61.753906 114.800781 61.628906 C 115.390625 57.863281 115.621094 50.902344 115.824219 44.765625 C 115.878906 43.070312 115.933594 41.484375 115.988281 40.136719 C 116.027344 39.164062 115.710938 38.210938 115.101562 37.453125 C 112.5625 34.324219 107.617188 26.796875 105.988281 24.324219 L 105.894531 24.179688 C 104.652344 22.28125 102.554688 21.140625 100.292969 21.140625 C 99.636719 21.140625 98.984375 21.238281 98.351562 21.429688 C 97.601562 21.648438 96.804688 21.933594 95.992188 22.234375 L 95.992188 22 C 95.992188 19.789062 94.203125 18 91.992188 18 L 79.015625 18 C 77.90625 18 76.851562 18.457031 76.097656 19.265625 C 75.339844 20.070312 74.953125 21.152344 75.023438 22.257812 L 75.125 23.855469 C 74.027344 23.753906 72.949219 23.703125 71.890625 23.703125 C 69.613281 23.703125 67.640625 23.9375 65.992188 24.273438 L 65.992188 12.648438 L 67.789062 7.265625 C 68.195312 6.046875 67.988281 4.707031 67.238281 3.660156 C 66.484375 2.617188 65.285156 2 64 2 Z M 99.953125 57.121094 L 99.632812 57.03125 C 98.363281 56.679688 96.628906 56.199219 95.960938 55.863281 L 96 35.160156 C 96.964844 34.929688 98.015625 34.683594 98.992188 34.464844 L 99.175781 35.234375 C 100.25 39.316406 101.464844 43.945312 101.464844 48.8125 C 101.464844 50.007812 100.894531 54.0625 99.960938 57.101562 Z M 99.953125 57.121094 "/>
</g>
</svg>
